<?xml version="1.0"?><svg viewBox="0 0 480 480" xmlns="http://www.w3.org/2000/svg" xmlns:xlink="http://www.w3.org/1999/xlink"><style>:root>svg{display:none}:root>svg:target{display:block}</style><svg fill="#FFF" viewBox="0 0 30 30" id="github" xmlns="http://www.w3.org/2000/svg"><path d="M15 3C8.373 3 3 8.373 3 15c0 5.623 3.872 10.328 9.092 11.63a1.751 1.751 0 01-.092-.583v-2.051h-1.508c-.821 0-1.551-.353-1.905-1.009-.393-.729-.461-1.844-1.435-2.526-.289-.227-.069-.486.264-.451.615.174 1.125.596 1.605 1.222.478.627.703.769 1.596.769.433 0 1.081-.025 1.691-.121.328-.833.895-1.6 1.588-1.962-3.996-.411-5.903-2.399-5.903-5.098 0-1.162.495-2.286 1.336-3.233-.276-.94-.623-2.857.106-3.587 1.798 0 2.885 1.166 3.146 1.481A8.993 8.993 0 0115.495 9c1.036 0 2.024.174 2.922.483C18.675 9.17 19.763 8 21.565 8c.732.731.381 2.656.102 3.594.836.945 1.328 2.066 1.328 3.226 0 2.697-1.904 4.684-5.894 5.097C18.199 20.49 19 22.1 19 23.313v2.734c0 .104-.023.179-.035.268C23.641 24.676 27 20.236 27 15c0-6.627-5.373-12-12-12z"/></svg><svg fill="#fff" viewBox="0 0 30 30" id="message" xmlns="http://www.w3.org/2000/svg"><path d="M15 3C7.82 3 2 7.925 2 14c0 3.368 1.793 6.378 4.611 8.396.072 1.536-.166 3.657-2.285 4.635a.5.5 0 00-.004.002A.5.5 0 004 27.5a.5.5 0 00.5.5l.035-.002a.5.5 0 00.008 0c2.434-.016 4.5-1.331 5.926-2.72.452-.442 1.082-.659 1.703-.542.91.173 1.856.264 2.828.264 7.18 0 13-4.925 13-11S22.18 3 15 3z"/></svg><svg fill="#fff" viewBox="0 0 30 30" id="telegram" xmlns="http://www.w3.org/2000/svg"><path d="M25.154 3.984a2.718 2.718 0 00-.894.217c-.25.1-1.204.51-2.707 1.154-1.505.646-3.497 1.5-5.621 2.415-4.25 1.827-9.028 3.884-11.475 4.937-.092.04-.413.142-.754.408-.34.266-.703.818-.703 1.432 0 .495.236.987.533 1.281.297.294.612.44.881.549l4.58 1.873c.202.617 1.298 3.973 1.553 4.795.168.543.327.883.535 1.152.104.135.225.253.371.346.059.037.123.066.188.092l.004.002c.014.006.027.016.043.021.028.01.047.011.085.02.153.049.307.08.444.08.585 0 .943-.322.943-.322l.022-.016 3.01-2.604 3.65 3.454c.051.072.53.73 1.588.73.627 0 1.125-.315 1.445-.65.32-.336.519-.688.604-1.131v-.002c.079-.419 3.443-17.69 3.443-17.69l-.006.024c.098-.45.124-.868.016-1.281a1.748 1.748 0 00-.75-1.022 1.798 1.798 0 00-1.028-.264zm-.187 2.09c-.005.03.003.015-.004.049l-.002.012-.002.011s-3.323 17.05-3.445 17.7c.009-.05-.032.048-.075.107-.06-.04-.181-.094-.181-.094l-.02-.021-4.986-4.717-3.525 3.047 1.048-4.2s6.557-6.786 6.952-7.18c.318-.317.384-.427.384-.536 0-.146-.076-.252-.246-.252-.153 0-.359.149-.469.219-1.433.913-7.724 4.58-10.544 6.22-.449-.183-3.562-1.458-4.618-1.888l.014-.006 11.473-4.938 5.62-2.414c1.48-.634 2.51-1.071 2.626-1.119z"/></svg></svg>